# xmcd
#
# Track frame offsets:
#	150
#	9112
#	18925
#	33460
#	51222
#	62100
#	70545
#	79960
#	89435
#	116465
#	125902
#	140400
#	150117
#	168220
#	179992
#	194775
#	212112
#	225975
#	242512
#	258307
#
# Disc length: 3603 seconds
#
# Revision: 2
# Processed by: cddbd v1.5.2PL0 Copyright (c) Steve Scherf et al.
# Submitted via: MusicManager 7.3.0.0 
#
DISCID=0c0e1114
DTITLE=Clash, the - The Essential Clash [CD1]
DYEAR=2003
DGENRE=Punk
TTITLE0=White Riot
TTITLE1=London's Burning
TTITLE2=Complete Control
TTITLE3=Clash City Rockers (Original Version)
TTITLE4=I'm So Bored With The USA
TTITLE5=Carreer Opportunities
TTITLE6=Hate and War
TTITLE7=Cheat
TTITLE8=Police and Thieves
TTITLE9=Janie Jones
TTITLE10=Garageland
TTITLE11=Capital Radio One
TTITLE12=(White Man) In Hammersmith Palais
TTITLE13=English Civil War
TTITLE14=Tommy Gun
TTITLE15=Safe European Home
TTITLE16=Julie's Been Working For The Drug Squad
TTITLE17=Stay Free
TTITLE18=Groovy Times
TTITLE19=I Fought The Law
EXTD=
EXTT0=
EXTT1=
EXTT2=
EXTT3=
EXTT4=
EXTT5=
EXTT6=
EXTT7=
EXTT8=
EXTT9=
EXTT10=
EXTT11=
EXTT12=
EXTT13=
EXTT14=
EXTT15=
EXTT16=
EXTT17=
EXTT18=
EXTT19=
PLAYORDER=
